<svg width="140" height="158" viewBox="0 0 140 158" fill="none" xmlns="http://www.w3.org/2000/svg">
<path d="M11.4863 157.077L51.3435 137.003C60.7905 139.654 70.5153 140.272 80.256 138.835C118.212 133.233 144.535 97.7951 138.934 59.8386C133.332 21.881 97.8951 -4.44298 59.9386 1.15839C21.9822 6.75975 -4.34055 42.1979 1.26098 80.1555C3.41397 94.7447 9.95968 107.986 20.2111 118.506L11.4863 157.077ZM16.0994 151.174L23.042 120.479L23.7408 117.52C13.6151 107.388 6.5189 93.8933 4.4227 79.6889C-0.921497 43.475 24.1927 9.66528 60.4054 4.32124C96.6181 -1.0228 130.428 24.0913 135.772 60.3052C141.116 96.519 116.002 130.327 79.7891 135.671C70.2704 137.075 60.1803 136.254 50.9617 133.566L16.0994 151.174Z" fill="black"/>
<path d="M109.674 37.8564C126.825 59.4991 123.183 90.9472 101.541 108.098C79.898 125.248 48.4499 121.607 31.2994 99.964C14.1489 78.3213 17.7905 46.8732 39.4331 29.7227C61.0758 12.5722 92.5239 16.2137 109.674 37.8564Z" fill="#D34848"/>
<path fill-rule="evenodd" clip-rule="evenodd" d="M16.0994 151.174L23.042 120.479L23.7408 117.52C13.6151 107.388 6.5189 93.8933 4.4227 79.6889C-0.921497 43.475 24.1927 9.66528 60.4054 4.32124C96.6181 -1.0228 130.428 24.0913 135.772 60.3052C141.116 96.519 116.002 130.327 79.7891 135.671C70.2704 137.075 60.1803 136.254 50.9617 133.566L16.0994 151.174ZM101.541 108.098C123.183 90.9472 126.825 59.4991 109.674 37.8564C92.5239 16.2137 61.0758 12.5722 39.4331 29.7227C17.7905 46.8732 14.1489 78.3213 31.2994 99.964C48.4499 121.607 79.898 125.248 101.541 108.098Z" fill="white"/>
</svg>
